<svg width="256" height="256" viewBox="0 0 256 256" fill="none" xmlns="http://www.w3.org/2000/svg">
<path d="M90.1916 155.075C83.4553 145.261 74.269 138.263 63.7487 132.462C62.0472 131.425 60.4885 130.543 58.8854 129.748C48.0673 124.386 36.5255 122.095 24.5028 121.802C23.3015 121.773 22.1096 121.365 20.8079 121.083C20.1254 120.683 19.5484 120.334 18.9713 119.985C18.9713 119.985 18.9454 119.93 18.977 119.772C17.5209 117.178 17.2794 114.523 17.3498 111.73C17.5328 104.467 17.5699 97.2 17.6652 89.9348C17.6652 89.9348 17.6594 89.9722 17.7152 89.9593C17.8118 89.9245 17.8527 89.9027 17.8935 89.8809C17.8497 89.8072 17.8058 89.7334 17.762 89.6596C18.0027 89.325 18.2434 88.9904 18.7109 88.6164C19.4516 88.1906 19.9654 87.8042 20.4791 87.4178C20.4791 87.4178 20.507 87.4471 20.6406 87.4844C21.9877 87.4101 23.2087 87.154 24.4133 87.2147C27.6657 87.3783 30.9111 87.6768 34.1593 87.9218C36.7393 88.1546 39.3193 88.3875 42.1016 88.7375C42.6829 89.0036 43.05 89.2017 43.4426 89.2939C46.9704 90.1229 50.5026 90.9332 54.0336 91.749C56.2004 92.3058 58.3965 92.7713 60.5271 93.4408C63.7494 94.4532 67.0199 95.3992 70.0986 96.7545C73.9841 98.4649 77.7599 100.449 81.4687 102.516C85.7258 104.888 89.9449 107.351 94.0105 110.027C96.3673 111.579 98.3897 113.627 100.721 115.586C101 115.758 101.121 115.796 101.241 115.834C101.241 115.834 101.195 115.845 101.215 115.939C101.482 116.191 101.729 116.349 101.977 116.507C101.977 116.507 101.931 116.533 101.946 116.629C102.767 117.371 103.574 118.018 104.38 118.664C104.38 118.664 104.351 118.671 104.355 118.781C104.837 119.282 105.316 119.672 105.795 120.063C105.795 120.063 105.767 120.074 105.793 120.151C105.925 120.295 106.03 120.362 106.136 120.429C106.136 120.429 106.109 120.428 106.115 120.537C106.506 121.023 106.89 121.401 107.275 121.778C107.275 121.778 107.218 121.806 107.248 121.887C107.416 122.036 107.554 122.106 107.692 122.175C107.783 122.173 107.848 122.212 107.915 122.468C108.176 122.825 108.408 123.009 108.639 123.193C108.639 123.193 108.606 123.199 108.641 123.278C108.792 123.408 108.909 123.459 109.025 123.51C109.025 123.51 108.986 123.524 109.017 123.636C110.02 124.044 110.986 124.572 111.964 124.595C116.255 124.694 120.551 124.611 124.844 124.66C131.595 124.738 138.344 124.88 145.095 124.949C145.395 124.952 145.7 124.501 146.003 124.261C145.582 123.467 145.299 122.554 144.719 121.899C141.115 117.833 137.445 113.825 133.818 109.614C133.519 109.155 133.199 108.882 132.88 108.608C132.88 108.608 132.923 108.585 132.898 108.512C132.764 108.366 132.654 108.294 132.543 108.222C132.543 108.222 132.593 108.216 132.558 108.147C132.414 108.008 132.304 107.94 132.193 107.871C132.193 107.871 132.241 107.866 132.208 107.796C132.067 107.655 131.96 107.585 131.853 107.514C131.853 107.514 131.886 107.515 131.881 107.412C131.711 107.209 131.545 107.108 131.38 107.007C131.38 107.007 131.384 106.975 131.403 106.853C131.299 106.7 131.176 106.669 131.054 106.638C131.054 106.638 131.053 106.607 131.061 106.493C130.946 106.351 130.824 106.321 130.701 106.292C130.701 106.292 130.698 106.259 130.707 106.145C130.593 106 130.47 105.97 130.347 105.94C130.347 105.94 130.347 105.909 130.355 105.795C130.239 105.65 130.116 105.62 129.993 105.589C129.993 105.589 129.952 105.574 129.977 105.45C129.756 105.2 129.511 105.075 129.266 104.949C129.266 104.949 129.247 104.898 129.273 104.765C129.177 104.606 129.056 104.581 128.934 104.555C128.934 104.555 128.889 104.533 128.912 104.402C128.37 103.847 127.805 103.423 127.24 103C127.24 103 127.278 102.996 127.277 102.885C126.773 102.396 126.271 102.018 125.769 101.64C125.769 101.64 125.826 101.626 125.803 101.547C125.653 101.424 125.526 101.38 125.399 101.336C125.399 101.336 125.48 101.31 125.453 101.206C124.973 100.8 124.52 100.498 124.068 100.196C124.068 100.196 124.104 100.181 124.1 100.068C123.711 99.7156 123.326 99.4767 122.942 99.2378C122.942 99.2378 122.983 99.1563 122.973 99.0768C122.71 98.8796 122.457 98.762 122.205 98.6443C122.205 98.6443 122.182 98.6059 122.193 98.4805C122.002 98.2684 121.8 98.1817 121.597 98.0951C121.597 98.0951 121.634 98.0788 121.627 97.965C121.231 97.6278 120.842 97.4044 120.453 97.1811C120.453 97.1811 120.467 97.1733 120.468 97.0562C120.343 96.9087 120.218 96.8783 120.093 96.848C120.093 96.848 120.077 96.8223 120.085 96.7103C119.888 96.5133 119.683 96.4284 119.478 96.3434C119.478 96.3434 119.511 96.3325 119.477 96.2568C119.329 96.1182 119.216 96.0552 119.104 95.9922C119.104 95.9922 119.145 95.9923 119.142 95.8861C118.544 95.3854 117.95 94.9909 117.356 94.5964C117.356 94.5964 117.391 94.583 117.381 94.4728C117.107 94.2363 116.844 94.11 116.581 93.9837C116.581 93.9837 116.615 93.9385 116.601 93.8598C116.463 93.7556 116.338 93.7301 116.213 93.7046C116.213 93.7046 116.187 93.6836 116.194 93.5675C115.994 93.369 115.788 93.2867 115.582 93.2043C115.582 93.2043 115.619 93.19 115.612 93.0842C114.19 91.9982 112.775 91.0181 111.36 90.038C111.36 90.038 111.39 90.0226 111.379 89.914C110.748 89.46 110.127 89.1145 109.507 88.769C109.507 88.769 109.544 88.6711 109.523 88.602C109.288 88.4604 109.074 88.3878 108.859 88.3153C108.859 88.3153 108.898 88.3022 108.86 88.2251C108.696 88.1155 108.569 88.083 108.442 88.0505C108.442 88.0505 108.478 88.0737 108.465 87.9453C108.103 87.6595 107.754 87.5021 107.404 87.3447C107.404 87.3447 107.509 87.2758 107.457 87.189C105.889 86.2214 104.374 85.3406 102.858 84.4598C102.858 84.4598 102.894 84.4494 102.859 84.3492C100.567 82.8187 98.3367 81.3445 96.0406 79.9792C95.0711 79.4026 93.962 79.0556 92.9164 78.6043C92.9164 78.6043 92.975 78.6225 92.9391 78.4888C92.4549 78.1711 92.0066 77.9872 91.5584 77.8032C91.5584 77.8032 91.5891 77.7933 91.5493 77.6924C91.1548 77.4577 90.8001 77.324 90.4453 77.1903C90.4453 77.1903 90.517 77.1669 90.476 77.0587C88.4812 75.9454 86.5205 74.9528 84.5746 73.9328C75.9114 69.3916 66.6255 66.5719 57.1636 64.2528C48.0079 62.0088 38.7198 60.6435 29.2879 60.2669C27.4772 60.1946 25.67 60.0384 23.8607 59.9302C20.7339 59.7434 18.7127 58.0129 17.3504 55.2127C17.3672 47.1947 17.368 39.3392 17.3761 31.4836C17.3771 30.4774 17.4162 29.4713 17.4376 28.4651C18.6524 25.7594 19.4676 25.2353 22.324 25.2665C24.4404 25.2897 26.5571 25.2855 28.9917 25.2979C32.6574 25.5315 36.0049 25.7608 39.3525 25.9901C40.3131 26.1119 41.2737 26.2336 42.4824 26.4697C43.6427 26.6995 44.5535 26.8264 45.4672 26.9281C47.7812 27.1855 50.0964 27.4315 52.4112 27.6821C52.6664 27.8098 52.9217 27.9376 53.4253 28.0961C59.8123 29.6322 65.9509 31.1375 72.0895 32.6429C73.3276 32.9832 74.5656 33.3235 76.0219 33.7794C77.0195 34.044 77.7988 34.1931 78.5781 34.3421C78.5781 34.3421 78.5648 34.3702 78.6203 34.4674C81.4019 35.5592 84.1281 36.5538 86.8543 37.5484C89.431 38.4951 92.066 39.3124 94.5716 40.4171C99.0083 42.3731 103.383 44.47 107.749 46.5783C109.498 47.4227 111.142 48.4766 112.859 49.3894C113.718 49.846 114.709 50.0872 115.51 50.6178C122.838 55.4695 130.177 60.3072 137.42 65.2805C139.498 66.7074 141.248 68.5953 143.2 70.2109C144.987 71.6898 146.947 72.9757 148.647 74.5421C152.411 78.0096 156.072 81.5867 159.743 85.1511C160.483 85.8696 161.082 86.7299 161.865 87.6891C162.131 87.9566 162.278 88.0599 162.425 88.1632C162.425 88.1632 162.412 88.2091 162.409 88.2993C162.63 88.5659 162.854 88.7424 163.077 88.9189C163.077 88.9189 163.025 88.9185 163.042 89.0303C163.29 89.3054 163.521 89.4688 163.752 89.6322C163.752 89.6322 163.734 89.6482 163.741 89.7626C164.131 90.2394 164.515 90.6018 164.899 90.9642C164.899 90.9642 164.85 91.0231 164.865 91.1014C165.102 91.3605 165.323 91.5414 165.544 91.7223C165.544 91.7223 165.517 91.7458 165.546 91.8166C165.674 91.9555 165.774 92.0235 165.873 92.0915C165.873 92.0915 165.85 92.1058 165.887 92.177C166.024 92.3131 166.122 92.378 166.22 92.4428C166.22 92.4428 166.197 92.455 166.21 92.5658C166.584 93.0596 166.946 93.4426 167.307 93.8256C167.307 93.8256 167.266 93.8182 167.278 93.9369C167.775 94.5544 168.261 95.0531 168.747 95.5519C168.747 95.5519 168.716 95.5774 168.739 95.6498C168.864 95.7921 168.965 95.862 169.066 95.9318C169.066 95.9318 169.035 95.9216 169.044 96.0402C169.534 96.6633 170.014 97.1677 170.494 97.6721C170.494 97.6721 170.449 97.6726 170.459 97.787C170.745 98.1449 171.019 98.3883 171.294 98.6316C171.294 98.6316 171.275 98.6886 171.263 98.7737C171.468 99.0476 171.685 99.2365 171.902 99.4254C171.902 99.4254 171.862 99.4388 171.873 99.5503C172.701 100.635 173.519 101.608 174.337 102.581C174.337 102.581 174.336 102.591 174.345 102.715C174.84 103.446 175.328 104.052 175.815 104.659C175.815 104.659 175.773 104.674 175.774 104.778C176.028 105.153 176.281 105.424 176.534 105.696C176.534 105.696 176.498 105.711 176.519 105.785C176.638 105.933 176.737 106.006 176.837 106.08C176.837 106.08 176.803 106.082 176.815 106.193C177.074 106.574 177.321 106.844 177.569 107.114C177.569 107.114 177.525 107.133 177.534 107.243C178.488 108.677 179.435 109.999 180.381 111.322C180.381 111.322 180.347 111.337 180.357 111.437C180.515 111.681 180.662 111.826 180.81 111.97C180.81 111.97 180.749 112.025 180.745 112.118C181.218 112.843 181.695 113.476 182.172 114.108C182.172 114.108 182.137 114.119 182.138 114.232C183.316 116.254 184.493 118.163 185.67 120.072C185.67 120.072 185.643 120.084 185.646 120.203C186.035 120.923 186.421 121.524 186.807 122.125C186.807 122.125 186.767 122.141 186.755 122.245C187 122.624 187.255 122.899 187.511 123.175C187.511 123.175 187.473 123.183 187.466 123.287C187.687 123.565 187.916 123.738 188.145 123.91C188.145 123.91 188.119 123.932 188.149 124.059C188.468 124.335 188.749 124.597 189.046 124.615C191.558 124.762 194.072 124.953 196.587 124.965C205.055 125.008 213.523 124.99 221.992 124.969C222.601 124.967 223.211 124.746 223.981 124.626C227.07 124.321 229.712 125.36 232.367 126.338C232.367 126.338 232.327 126.347 232.353 126.418C232.545 126.563 232.711 126.635 232.877 126.707C234.663 128.551 236.75 130.177 237.374 133.056C237.425 134.483 237.595 135.687 237.596 136.892C237.613 154.256 237.608 171.621 237.547 189.118C237.41 189.877 237.257 190.503 237.265 191.127C237.376 200.103 237.508 209.079 237.635 218.055C237.635 218.055 237.625 218.02 237.531 218.1C236.941 221.035 236.071 223.725 234.061 225.943C233.873 226.15 233.92 226.565 233.858 226.883C233.858 226.883 233.813 226.878 233.723 226.874C233.58 226.993 233.525 227.115 233.471 227.237C233.471 227.237 233.446 227.194 233.363 227.206C233.216 227.336 233.153 227.454 233.089 227.571C233.089 227.571 233.081 227.525 232.972 227.519C232.691 227.747 232.518 227.98 232.344 228.214C232.344 228.214 232.323 228.176 232.209 228.173C231.824 228.419 231.553 228.668 231.283 228.917C231.283 228.917 231.263 228.884 231.138 228.877C226.733 230.451 222.267 230.264 217.812 230.259C202.692 230.24 187.573 230.248 172.454 230.267C171.782 230.268 171.111 230.48 170.275 230.597C148.279 230.6 126.449 230.598 104.618 230.613C103.939 230.613 103.26 230.794 102.581 230.89C96.3828 230.029 91.8112 225.493 90.3249 218.369C90.4732 217.952 90.5369 217.781 90.5369 217.611C90.5434 197.001 90.5463 176.392 90.5324 155.782C90.5323 155.546 90.3101 155.31 90.1916 155.075ZM201.178 205.089C201.178 205.089 201.172 205.134 201.105 204.949C200.996 204.88 200.888 204.812 200.816 204.744C200.816 204.744 200.805 204.779 200.81 204.525C200.449 204.252 200.087 203.978 199.758 203.695C199.758 203.695 199.748 203.726 199.752 203.475C199.035 202.848 198.318 202.22 197.444 201.554C197.344 201.494 197.292 201.406 197.217 201.107C197.111 201.035 197.005 200.962 196.933 200.892C196.933 200.892 196.924 200.924 196.923 200.673C196.563 200.399 196.203 200.126 195.875 199.843C195.875 199.843 195.864 199.873 195.865 199.623C195.582 199.419 195.299 199.215 194.988 198.968C194.988 198.968 194.951 198.933 195.041 198.697C194.678 198.454 194.316 198.211 193.886 197.928C193.886 197.928 193.836 197.867 193.96 197.774C193.893 197.773 193.826 197.772 193.551 197.674C193.143 197.23 192.734 196.786 192.475 196.224C192.262 196.11 192.049 195.997 191.817 195.83C191.817 195.83 191.82 195.774 191.866 195.563C191.743 195.529 191.62 195.495 191.513 195.434C191.513 195.434 191.482 195.429 191.516 195.214C191.392 195.179 191.267 195.144 191.121 195.086C191.121 195.086 191.09 195.092 191.162 194.85C190.563 194.375 189.963 193.9 189.346 193.376C189.346 193.376 189.34 193.324 189.389 193.118C189.269 193.09 189.148 193.063 188.977 193.018C188.977 193.018 188.927 192.997 189.027 192.764C188.784 192.638 188.54 192.513 188.258 192.342C188.258 192.342 188.216 192.302 188.318 192.069C188.076 191.938 187.833 191.808 187.576 191.628C187.576 191.628 187.571 191.578 187.622 191.37C187.501 191.342 187.38 191.314 187.212 191.267C187.212 191.267 187.164 191.249 187.261 191.015C187.017 190.883 186.772 190.752 186.519 190.576C186.519 190.576 186.514 190.53 186.563 190.321C186.441 190.291 186.319 190.261 186.156 190.209C186.156 190.209 186.112 190.194 186.204 189.96C185.96 189.816 185.716 189.672 185.483 189.498C185.483 189.498 185.452 189.491 185.512 189.251C185.269 189.082 185.026 188.913 184.828 188.684C184.828 188.684 184.88 188.738 184.795 188.513C184.652 188.444 184.509 188.374 184.177 188.199C183.601 187.754 183.025 187.31 182.364 186.76C182.313 186.846 182.262 186.931 182.175 186.975C182.175 186.975 182.229 186.964 181.994 186.983C181.807 187.209 181.62 187.436 181.43 187.622C181.43 187.622 181.47 187.634 181.214 187.617C180.996 187.896 180.779 188.175 180.521 188.472C180.521 188.472 180.496 188.508 180.261 188.42C180.093 188.66 179.925 188.9 179.716 189.102C179.716 189.102 179.77 189.089 179.551 189.1C179.486 189.22 179.421 189.34 179.341 189.401C179.341 189.401 179.401 189.414 179.164 189.428C178.979 189.658 178.794 189.887 178.606 190.074C178.606 190.074 178.647 190.087 178.393 190.066C178.038 190.46 177.683 190.854 177.309 191.139C177.309 191.139 177.31 191.25 177.068 191.201C176.891 191.439 176.713 191.676 176.532 191.863C176.532 191.863 176.574 191.891 176.315 191.845C176.144 192.086 175.974 192.327 175.788 192.534C175.788 192.534 175.825 192.541 175.571 192.516C174.935 193.117 174.298 193.717 173.657 194.274C173.657 194.274 173.7 194.286 173.441 194.266C172.805 194.746 172.168 195.226 171.526 195.667C171.526 195.667 171.566 195.675 171.275 195.647C170.99 195.702 170.694 195.725 170.422 195.817C167.002 196.97 163.659 196.955 160.409 195.227C160.115 195.071 159.743 195.06 159.45 194.97C159.45 194.97 159.447 195.014 159.375 194.818C159.249 194.774 159.123 194.731 159.048 194.702C159.048 194.702 159.007 194.737 159.014 194.481C158.209 193.942 157.404 193.403 156.632 192.855C156.632 192.855 156.633 192.89 156.559 192.704C156.443 192.643 156.328 192.581 156.26 192.526C156.26 192.526 156.239 192.568 156.256 192.321C155.749 191.977 155.242 191.633 154.71 191.258C154.71 191.258 154.671 191.248 154.747 191.006C154.036 190.517 153.325 190.029 152.603 189.507C152.603 189.507 152.568 189.508 152.611 189.275C152.406 189.191 152.202 189.106 152.035 189.008C152.035 189.008 152.04 189.047 151.951 188.855C151.826 188.792 151.702 188.728 151.356 188.604C150.067 187.58 148.778 186.555 147.362 185.385C147.17 185.668 146.978 185.951 146.774 186.204C146.774 186.204 146.805 186.214 146.566 186.217C146.474 186.382 146.383 186.548 146.249 186.746C146.249 186.746 146.218 186.789 145.984 186.684C145.85 186.924 145.715 187.164 145.538 187.426C145.538 187.426 145.508 187.464 145.27 187.375C145.134 187.618 144.998 187.861 144.822 188.114C144.822 188.114 144.799 188.148 144.557 188.071C144.198 188.546 143.84 189.021 143.435 189.543C143.435 189.543 143.384 189.584 143.149 189.482C141.599 191.119 140.049 192.755 138.46 194.416C138.46 194.416 138.44 194.456 138.2 194.369C138.075 194.612 137.951 194.854 137.778 195.135C137.778 195.135 137.728 195.173 137.489 195.076C137.17 195.51 136.852 195.943 136.523 196.346C136.523 196.346 136.554 196.356 136.308 196.363C136.15 196.604 135.991 196.845 135.822 197.05C135.822 197.05 135.86 197.049 135.673 197.115C135.604 197.223 135.534 197.331 135.466 197.401C135.466 197.401 135.503 197.411 135.255 197.415C135.094 197.655 134.932 197.894 134.763 198.102C134.763 198.102 134.794 198.11 134.548 198.114C134.386 198.353 134.225 198.593 134.051 198.796C134.051 198.796 134.09 198.793 133.902 198.872C133.835 198.985 133.767 199.098 133.664 199.356C133.607 199.451 133.522 199.498 133.218 199.564C133.141 199.672 133.065 199.78 132.985 199.841C132.985 199.841 133.033 199.844 132.841 199.925C132.775 200.042 132.709 200.159 132.611 200.418C132.554 200.51 132.471 200.555 132.108 200.557C131.936 200.8 131.765 201.043 131.582 201.249C131.582 201.249 131.622 201.248 131.433 201.313C131.364 201.422 131.295 201.531 131.222 201.594C131.222 201.594 131.268 201.597 131.08 201.662C131.01 201.77 130.94 201.877 130.87 201.948C130.87 201.948 130.905 201.959 130.65 201.952C130.439 202.234 130.228 202.516 129.981 202.832C129.981 202.832 129.958 202.876 129.78 202.763C129.675 202.953 129.57 203.144 129.362 203.546C125.013 207.769 120.66 211.989 116.322 216.223C116.046 216.493 115.884 216.877 115.829 217.46C116.521 217.529 117.212 217.659 117.904 217.659C148.697 217.669 179.49 217.669 210.283 217.655C210.903 217.654 211.522 217.466 212.36 217.315C212.529 217.195 212.698 217.075 212.982 216.881C212.91 216.808 212.839 216.734 212.809 216.648C212.809 216.648 212.803 216.691 212.82 216.434C212.462 216.154 212.104 215.875 211.781 215.583C211.781 215.583 211.784 215.62 211.703 215.435C211.589 215.369 211.475 215.302 211.212 215.201C211.116 215.143 211.069 215.058 211.001 214.758C210.892 214.683 210.783 214.608 210.722 214.532C210.722 214.532 210.715 214.579 210.649 214.392C210.538 214.324 210.428 214.256 210.366 214.184C210.366 214.184 210.361 214.231 210.296 214.044C210.186 213.976 210.076 213.907 210.013 213.833C210.013 213.833 210.01 213.879 209.941 213.696C209.834 213.626 209.727 213.556 209.654 213.486C209.654 213.486 209.644 213.518 209.649 213.269C208.779 212.473 207.909 211.676 207.023 210.844C207.023 210.844 206.985 210.834 207.066 210.595C206.821 210.467 206.575 210.338 206.304 210.166C206.304 210.166 206.268 210.13 206.353 209.889C205.913 209.575 205.473 209.261 205.065 208.936C205.065 208.936 205.054 208.967 205.055 208.717C204.462 208.209 203.869 207.7 203.305 207.179C203.305 207.179 203.294 207.209 203.287 206.958C202.926 206.689 202.564 206.42 202.237 206.14C202.237 206.14 202.241 206.175 202.159 205.991C202.044 205.926 201.929 205.86 201.666 205.756C201.573 205.693 201.528 205.606 201.457 205.309C201.349 205.236 201.24 205.163 201.178 205.089ZM128.846 184.348C128.917 184.24 128.988 184.133 129.058 184.062C129.058 184.062 129.022 184.051 129.274 184.059C129.724 183.547 130.174 183.036 130.658 182.484C130.658 182.484 130.686 182.439 130.861 182.552C130.972 182.361 131.083 182.17 131.294 181.768C133.069 179.944 134.843 178.121 136.804 176.106C128.419 168.827 120.02 161.482 111.552 154.216C108.906 151.946 106.074 149.89 103.087 147.907C103.032 148.42 102.929 148.934 102.929 149.447C102.925 167.068 102.929 184.69 102.936 202.311C102.937 202.756 102.985 203.202 103.011 203.647C103.128 203.646 103.246 203.644 103.363 203.643C103.363 198.601 103.363 193.559 103.477 188.796C103.477 195.277 103.477 201.759 103.477 208.44C105.011 207.021 106.295 205.869 107.538 204.677C113.478 198.977 119.407 193.267 125.617 187.551C125.808 187.299 125.998 187.047 126.21 186.838C126.21 186.838 126.162 186.842 126.361 186.79C126.432 186.678 126.503 186.567 126.58 186.508C126.58 186.508 126.526 186.503 126.721 186.442C126.79 186.331 126.86 186.22 126.935 186.161C126.935 186.161 126.883 186.156 127.076 186.094C127.145 185.983 127.214 185.871 127.281 185.804C127.281 185.804 127.24 185.788 127.491 185.794C127.652 185.551 127.813 185.308 127.989 185.105C127.989 185.105 127.946 185.108 128.138 185.045C128.207 184.934 128.276 184.824 128.35 184.763C128.35 184.763 128.3 184.758 128.492 184.696C128.561 184.585 128.63 184.475 128.705 184.413C128.705 184.413 128.656 184.409 128.846 184.348ZM212.168 196.304C212.168 196.304 212.183 196.278 212.196 196.538C212.472 196.696 212.748 196.854 213.234 197.091C214.638 198.473 216.041 199.856 217.538 201.395C217.65 201.438 217.762 201.482 217.832 201.51C217.832 201.51 217.876 201.51 217.847 201.76C218.818 202.595 219.789 203.43 220.674 204.327C220.674 204.327 220.748 204.251 220.746 204.494C221.337 205.002 221.928 205.511 222.534 206.055C222.534 206.055 222.54 206.017 222.469 206.267C222.781 207.04 223.024 207.942 224.168 207.172C224.168 207.172 224.159 207.163 224.44 207.097C224.587 206.519 224.861 205.942 224.862 205.364C224.887 196.636 224.876 187.909 224.874 178.856C224.875 170.069 224.885 161.282 224.859 152.495C224.858 151.845 224.607 151.195 224.262 150.637C214.441 159.161 204.642 167.712 194.769 176.177C193.537 177.234 193.539 177.8 194.651 178.875C198.298 182.4 201.857 186.014 205.454 189.848C206.635 190.954 207.817 192.06 208.975 193.177C208.975 193.177 208.987 193.153 208.996 193.4C209.47 193.786 209.945 194.172 210.392 194.574C210.392 194.574 210.406 194.546 210.412 194.793C210.889 195.179 211.366 195.564 211.822 195.967C211.822 195.967 211.811 195.942 211.877 196.12C211.984 196.185 212.09 196.249 212.168 196.304ZM183.343 138.522C161.395 138.522 139.448 138.522 117.032 138.522C117.589 139.367 117.803 139.898 118.188 140.239C119.75 141.625 121.388 142.927 122.956 144.306C131.598 151.906 140.234 159.512 148.859 167.131C153.777 171.476 158.671 175.848 163.576 180.207C166.191 182.53 166.208 182.548 168.848 180.208C182.571 168.039 196.287 155.863 210 143.683C211.767 142.114 213.499 140.507 215.247 138.917C215.194 138.785 215.141 138.653 215.088 138.521C204.624 138.521 194.16 138.521 183.343 138.522ZM183.343 138.242C192.341 138.242 201.339 138.242 210.338 138.242C210.337 138.169 210.337 138.095 210.337 138.022C180.206 138.022 150.076 138.022 119.945 138.022C119.945 138.095 119.945 138.169 119.945 138.242C140.96 138.242 161.975 138.242 183.343 138.242Z" fill="#F36312"/>
<path d="M70.418 208.103C69.1257 209.356 67.8334 210.608 66.3621 211.98C65.625 212.605 65.0667 213.11 64.5085 213.615C64.5085 213.615 64.4499 213.463 64.355 213.498C63.9885 213.794 63.7169 214.055 63.4453 214.316C63.4453 214.316 63.3116 214.258 63.2493 214.244C62.4348 214.717 61.6826 215.203 60.9304 215.689C60.9304 215.689 60.9031 215.653 60.7841 215.626C58.0177 216.403 55.3703 217.206 52.5674 218.008C46.8179 218.888 41.4267 217.926 36.032 216.16C35.1421 215.831 34.3337 215.593 33.5255 215.355C33.5255 215.355 33.5568 215.377 33.5355 215.242C32.8252 214.81 32.1362 214.512 31.4471 214.215C31.4471 214.215 31.4864 214.2 31.478 214.091C30.7609 213.588 30.0523 213.194 29.3437 212.799C29.3437 212.799 29.3773 212.782 29.3639 212.673C29.088 212.437 28.8255 212.31 28.563 212.183C28.563 212.183 28.5997 212.154 28.5895 212.052C27.7705 211.302 26.9616 210.655 26.1528 210.007C26.1528 210.007 26.1895 209.989 26.1848 209.881C25.8957 209.567 25.6111 209.362 25.3266 209.156C25.3266 209.156 25.306 209.112 25.3328 208.974C24.7583 208.252 24.1571 207.667 23.5558 207.083C23.5558 207.083 23.5207 207.029 23.5556 206.878C23.2639 206.423 22.9374 206.118 22.6109 205.813C22.6109 205.813 22.6463 205.795 22.6457 205.691C22.3917 205.311 22.1384 205.035 21.8852 204.759C21.8852 204.759 21.924 204.754 21.9359 204.639C21.6568 204.196 21.3657 203.869 21.0746 203.542C21.0746 203.542 21.0461 203.48 21.1101 203.322C20.7738 202.023 20.3852 200.877 19.9715 199.741C17.6096 193.253 17.4488 186.65 18.9432 179.971C19.2941 178.402 19.7604 176.859 20.1736 175.303C20.1736 175.303 20.184 175.331 20.2863 175.288C21.0266 173.986 21.6647 172.727 22.3027 171.467C22.3027 171.467 22.3194 171.493 22.4308 171.477C22.803 170.983 23.064 170.504 23.3249 170.025C23.3249 170.025 23.337 170.063 23.4384 170.033C23.9404 169.432 24.3409 168.86 24.7414 168.288C24.7414 168.288 24.772 168.349 24.8794 168.325C25.1176 168.043 25.2484 167.785 25.3791 167.528C25.3791 167.528 25.4321 167.565 25.5257 167.555C25.9822 167.06 26.3452 166.575 26.7081 166.09C26.7081 166.09 26.7444 166.079 26.8713 166.099C27.1579 165.879 27.3178 165.639 27.4777 165.399C27.4777 165.399 27.531 165.408 27.6364 165.44C28.6334 164.665 29.5251 163.858 30.4168 163.051C30.4168 163.051 30.4421 163.086 30.545 163.081C30.9255 162.827 31.2031 162.578 31.4807 162.329C31.4807 162.329 31.4845 162.364 31.5998 162.374C32.355 161.949 32.9949 161.513 33.6348 161.076C36.6792 159.692 39.7701 158.539 43.1533 158.137C45.5771 157.848 47.9373 157.561 50.4112 157.765C55.4049 158.177 60.0363 159.535 64.0457 162.484C66.0452 163.955 67.6899 165.898 69.6136 167.809C70.4367 168.805 71.1413 169.621 71.8458 170.437C71.8458 170.437 71.8191 170.442 71.828 170.554C72.2203 171.156 72.6037 171.646 72.9872 172.135C72.9872 172.135 72.9354 172.155 72.9467 172.225C73.0523 172.376 73.1466 172.459 73.2409 172.541C73.2409 172.541 73.2253 172.543 73.2385 172.646C73.3731 172.912 73.4945 173.074 73.6158 173.237C73.6158 173.237 73.589 173.241 73.5902 173.366C73.8157 174.206 73.9688 174.952 74.2752 175.63C77.1913 182.084 77.896 188.738 76.1071 195.6C75.5136 197.877 74.7663 200.115 74.0893 202.371C74.0893 202.371 74.1032 202.383 73.9785 202.397C72.9509 204.017 72.048 205.623 71.1451 207.23C71.1451 207.23 71.1367 207.192 71.0493 207.219C70.7806 207.532 70.5993 207.818 70.418 208.103Z" fill="#F36312"/>
<path d="M17.3365 55.375C18.7127 58.0129 20.7339 59.7434 23.8607 59.9302C25.67 60.0384 27.4772 60.1946 29.2879 60.2669C38.7198 60.6435 48.0079 62.0088 57.1636 64.2528C66.6255 66.5719 75.9114 69.3916 84.5746 73.9328C86.5205 74.9528 88.4812 75.9454 90.4459 77.0812C86.1614 75.2212 81.9899 72.8872 77.5427 71.3183C70.3418 68.7778 63.0458 66.3934 55.6289 64.5924C49.0027 62.9835 42.176 62.1304 35.4032 61.1865C32.0427 60.7181 28.6057 60.7614 25.201 60.6346C21.5155 60.4974 18.583 59.2419 17.1819 55.4911C17.2242 55.3691 17.3365 55.375 17.3365 55.375Z" fill="#F36312"/>
<path d="M170.44 230.594C171.111 230.48 171.782 230.268 172.454 230.267C187.573 230.248 202.692 230.24 217.812 230.259C222.267 230.264 226.733 230.451 231.157 228.883C228.529 230.754 225.324 230.894 222.178 230.906C205.038 230.975 187.898 230.947 170.598 230.849C170.437 230.745 170.44 230.594 170.44 230.594Z" fill="#F36312"/>
<path d="M20.9133 121.133C22.1096 121.365 23.3015 121.773 24.5028 121.802C36.5255 122.095 48.0673 124.386 58.8854 129.748C60.4885 130.543 62.0472 131.425 63.6496 132.376C57.9972 130.183 52.4429 127.495 46.608 125.699C41.7873 124.216 36.6514 123.678 31.6233 122.932C28.5636 122.478 25.4421 122.437 22.3516 122.173C21.9128 122.136 21.4924 121.889 20.9845 121.533C20.9082 121.262 20.9108 121.198 20.9133 121.133Z" fill="#F36312"/>
<path d="M170.275 230.597C170.44 230.594 170.437 230.745 170.433 230.821C156.914 230.932 143.398 230.985 129.882 230.999C120.891 231.008 111.9 230.961 102.745 230.915C103.26 230.794 103.939 230.613 104.618 230.613C126.449 230.598 148.279 230.6 170.275 230.597Z" fill="#F36312"/>
<path d="M145.841 124.27C145.7 124.5 145.395 124.952 145.095 124.949C138.344 124.88 131.595 124.738 124.844 124.66C120.551 124.611 116.255 124.694 111.964 124.595C110.986 124.572 110.02 124.044 109.022 123.616C110.195 123.678 111.393 124.031 112.595 124.043C123.622 124.155 134.65 124.208 145.841 124.27Z" fill="#F36312"/>
<path d="M90.1952 155.237C90.3101 155.31 90.5323 155.546 90.5324 155.782C90.5463 176.392 90.5434 197.001 90.5369 217.611C90.5369 217.781 90.4732 217.952 90.3463 218.232C90.2296 209.368 90.192 200.394 90.1858 191.42C90.1774 179.413 90.1933 167.407 90.1952 155.237Z" fill="#F36312"/>
<path d="M237.607 188.985C237.608 171.621 237.613 154.256 237.596 136.892C237.595 135.687 237.425 134.483 237.409 133.173C237.663 134.439 237.996 135.81 237.997 137.181C238.011 154.338 237.976 171.494 237.856 188.816C237.758 188.981 237.607 188.985 237.607 188.985Z" fill="#F36312"/>
<path d="M237.547 189.118C237.607 188.985 237.757 188.981 237.832 188.978C237.902 198.611 237.897 208.246 237.764 217.969C237.508 209.079 237.376 200.103 237.265 191.127C237.257 190.503 237.41 189.877 237.547 189.118Z" fill="#F36312"/>
<path d="M20.0726 175.378C19.7604 176.859 19.2941 178.402 18.9432 179.971C17.4488 186.65 17.6096 193.253 19.9715 199.741C20.3852 200.877 20.7738 202.023 21.1119 203.288C18.8882 199.744 17.9336 195.678 17.494 191.547C16.9052 186.013 17.5692 180.579 20.0726 175.378Z" fill="#F36312"/>
<path d="M223.82 124.627C223.211 124.746 222.601 124.967 221.992 124.969C213.523 124.99 205.055 125.008 196.587 124.965C194.072 124.953 191.558 124.762 189.046 124.615C188.749 124.597 188.468 124.335 188.158 124.045C188.815 124.021 189.493 124.234 190.173 124.241C195.404 124.301 200.635 124.321 206.15 124.459C211.059 124.581 215.684 124.597 220.31 124.614C221.267 124.51 222.225 124.407 223.373 124.389C223.635 124.548 223.721 124.599 223.82 124.627Z" fill="#F36312"/>
<path d="M74.1837 202.3C74.7663 200.115 75.5136 197.877 76.1071 195.6C77.896 188.738 77.1913 182.084 74.2752 175.63C73.9688 174.952 73.8157 174.206 73.5962 173.354C77.1991 179.818 78.5388 186.805 76.9022 194.174C76.2931 196.917 75.1679 199.547 74.1837 202.3Z" fill="#F36312"/>
<path d="M17.5529 90.0192C17.5699 97.2 17.5328 104.467 17.3498 111.73C17.2794 114.523 17.5209 117.178 18.9741 119.742C17.6861 118.422 16.9906 116.796 17.0001 114.839C17.0363 107.385 17.0026 99.9295 17.0342 92.4748C17.0376 91.6838 17.2989 90.8939 17.5529 90.0192Z" fill="#F36312"/>
<path d="M72.0509 32.5262C65.9509 31.1375 59.8123 29.6322 53.5347 28.1033C54.6781 28.2019 55.9941 28.1826 57.237 28.4712C62.0208 29.5819 66.7822 30.7878 71.5471 31.977C71.7275 32.022 71.8584 32.2609 72.0509 32.5262Z" fill="#F36312"/>
<path d="M17.3504 55.2127C17.3365 55.375 17.2242 55.3691 17.168 55.3717C17.0852 46.8268 17.055 38.2793 17.0447 29.7319C17.0443 29.4027 17.2338 29.0733 17.3862 28.6045C17.4162 29.4713 17.3771 30.4774 17.3761 31.4836C17.368 39.3392 17.3672 47.1947 17.3504 55.2127Z" fill="#F36312"/>
<path d="M36.1137 216.251C41.4267 217.926 46.8179 218.888 52.5669 218.074C52.7217 218.143 52.7244 218.276 52.7244 218.276C46.9898 219.357 41.4358 218.641 35.9363 216.514C35.9319 216.327 36.0162 216.278 36.1137 216.251Z" fill="#F36312"/>
<path d="M34.1132 87.8112C30.9111 87.6768 27.6657 87.3783 24.4133 87.2147C23.2087 87.154 21.9877 87.4101 20.6205 87.4873C21.3862 87.1516 22.3167 86.5656 23.2233 86.5998C26.6624 86.7293 30.0941 87.0542 33.5266 87.3295C33.7156 87.3447 33.8873 87.572 34.1132 87.8112Z" fill="#F36312"/>
<path d="M54.0004 91.6321C50.5026 90.9332 46.9704 90.1229 43.4426 89.2939C43.05 89.2017 42.6829 89.0036 42.222 88.7581C46.0824 89.6128 50.0248 90.564 54.0004 91.6321Z" fill="#F36312"/>
<path d="M92.9878 78.6968C93.962 79.0556 95.0711 79.4026 96.0406 79.9792C98.3367 81.3445 100.567 82.8187 102.857 84.3677C99.6142 82.5873 96.3367 80.6883 92.9878 78.6968Z" fill="#F36312"/>
<path d="M233.962 226.832C233.92 226.565 233.873 226.15 234.061 225.943C236.071 223.725 236.941 221.035 237.55 218.098C237.768 221.462 236.294 224.273 233.962 226.832Z" fill="#F36312"/>
<path d="M39.2736 25.8685C36.0049 25.7608 32.6574 25.5315 29.1548 25.2914C29.6586 25.1821 30.327 24.9587 30.9748 25.0066C33.7181 25.2095 36.4553 25.493 39.2736 25.8685Z" fill="#F36312"/>
<path d="M52.3168 27.5832C50.0964 27.4315 47.7812 27.1855 45.4672 26.9281C44.5535 26.8264 43.6427 26.6995 42.631 26.4936C45.2474 26.6682 47.9642 26.9263 50.6789 27.2042C51.1976 27.2573 51.7081 27.3889 52.3168 27.5832Z" fill="#F36312"/>
<path d="M52.8644 218.276C52.7244 218.276 52.7217 218.143 52.7222 218.077C55.3703 217.206 58.0177 216.403 60.8064 215.63C58.2999 216.533 55.6522 217.404 52.8644 218.276Z" fill="#F36312"/>
<path d="M220.209 124.503C215.684 124.597 211.059 124.581 206.317 124.489C210.836 124.407 215.472 124.399 220.209 124.503Z" fill="#F36312"/>
<path d="M86.8191 37.4391C84.1281 36.5538 81.4019 35.5592 78.6113 34.4546C81.2925 35.3398 84.0382 36.3348 86.8191 37.4391Z" fill="#F36312"/>
<path d="M223.981 124.626C223.721 124.599 223.635 124.548 223.522 124.411C226.593 124.036 229.58 124.328 232.314 126.227C229.712 125.36 227.07 124.321 223.981 124.626Z" fill="#F36312"/>
<path d="M185.65 119.948C184.493 118.163 183.316 116.254 182.146 114.216C183.312 115.999 184.472 117.912 185.65 119.948Z" fill="#F36312"/>
<path d="M111.423 90.1377C112.775 91.0181 114.19 91.9982 115.603 93.1019C114.23 92.2295 112.858 91.2334 111.423 90.1377Z" fill="#F36312"/>
<path d="M102.924 84.5601C104.374 85.3406 105.889 86.2214 107.409 87.2298C105.939 86.4584 104.464 85.5593 102.924 84.5601Z" fill="#F36312"/>
<path d="M71.2503 207.17C72.048 205.623 72.9509 204.017 73.9824 202.405C73.1924 203.97 72.2739 205.541 71.2503 207.17Z" fill="#F36312"/>
<path d="M180.359 111.201C179.435 109.999 178.488 108.677 177.549 107.226C178.483 108.425 179.41 109.753 180.359 111.201Z" fill="#F36312"/>
<path d="M30.3025 163.088C29.5251 163.858 28.6334 164.665 27.6157 165.423C28.3892 164.624 29.2888 163.875 30.3025 163.088Z" fill="#F36312"/>
<path d="M22.2012 171.532C21.6646 172.727 21.0266 173.986 20.2716 175.287C20.803 174.085 21.4513 172.841 22.2012 171.532Z" fill="#F36312"/>
<path d="M174.305 102.467C173.519 101.608 172.701 100.635 171.888 99.536C172.686 100.391 173.48 101.372 174.305 102.467Z" fill="#F36312"/>
<path d="M71.8179 170.32C71.1413 169.621 70.4367 168.805 69.7173 167.874C70.3983 168.573 71.0941 169.388 71.8179 170.32Z" fill="#F36312"/>
<path d="M61.0533 215.661C61.6826 215.203 62.4348 214.717 63.3175 214.27C62.6907 214.75 61.9335 215.192 61.0533 215.661Z" fill="#F36312"/>
<path d="M104.335 118.555C103.574 118.018 102.767 117.371 101.944 116.603C102.715 117.136 103.502 117.791 104.335 118.555Z" fill="#F36312"/>
<path d="M26.2032 210.114C26.9616 210.655 27.7705 211.302 28.5874 212.075C27.8148 211.54 27.0342 210.88 26.2032 210.114Z" fill="#F36312"/>
<path d="M29.4032 212.9C30.0523 213.194 30.7609 213.588 31.4675 214.109C30.7979 213.825 30.1303 213.413 29.4032 212.9Z" fill="#F36312"/>
<path d="M78.5286 34.2311C77.7988 34.1931 77.0195 34.044 76.1565 33.7994C76.8749 33.8425 77.677 33.9814 78.5286 34.2311Z" fill="#F36312"/>
<path d="M64.6192 213.579C65.0667 213.11 65.625 212.605 66.3006 212.084C65.8554 212.56 65.2927 213.052 64.6192 213.579Z" fill="#F36312"/>
<path d="M182.146 113.991C181.695 113.476 181.218 112.843 180.768 112.084C181.236 112.596 181.677 113.235 182.146 113.991Z" fill="#F36312"/>
<path d="M31.5113 214.317C32.1362 214.512 32.8252 214.81 33.5163 215.24C32.8708 215.055 32.2232 214.737 31.5113 214.317Z" fill="#F36312"/>
<path d="M33.5194 161.098C32.9949 161.513 32.355 161.949 31.5833 162.369C32.1023 161.942 32.7532 161.531 33.5194 161.098Z" fill="#F36312"/>
<path d="M23.6091 207.176C24.157 207.667 24.7583 208.252 25.3156 208.956C24.7353 208.474 24.1989 207.871 23.6091 207.176Z" fill="#F36312"/>
<path d="M36.032 216.16C36.0162 216.278 35.9319 216.327 35.8178 216.457C35.073 216.189 34.371 215.862 33.5973 215.444C34.3337 215.593 35.1421 215.831 36.032 216.16Z" fill="#F36312"/>
<path d="M109.575 88.8567C110.127 89.1145 110.747 89.46 111.374 89.93C110.801 89.6844 110.222 89.3144 109.575 88.8567Z" fill="#F36312"/>
<path d="M20.8079 121.083C20.9108 121.198 20.9082 121.262 20.9001 121.424C20.2881 121.069 19.6817 120.618 19.0233 120.076C19.5484 120.334 20.1254 120.683 20.8079 121.083Z" fill="#F36312"/>
<path d="M117.41 94.6983C117.95 94.9909 118.544 95.3854 119.134 95.905C118.574 95.6201 118.019 95.2102 117.41 94.6983Z" fill="#F36312"/>
<path d="M175.787 104.544C175.328 104.052 174.84 103.446 174.349 102.717C174.817 103.206 175.287 103.817 175.787 104.544Z" fill="#F36312"/>
<path d="M125.815 101.744C126.271 102.018 126.773 102.396 127.265 102.901C126.791 102.634 126.326 102.241 125.815 101.744Z" fill="#F36312"/>
<path d="M24.6352 168.336C24.3409 168.86 23.9404 169.432 23.4185 170.031C23.7078 169.5 24.1183 168.942 24.6352 168.336Z" fill="#F36312"/>
<path d="M168.724 95.4385C168.261 95.0531 167.775 94.5544 167.298 93.9337C167.772 94.3162 168.236 94.8206 168.724 95.4385Z" fill="#F36312"/>
<path d="M186.784 122.006C186.421 121.524 186.035 120.923 185.656 120.192C186.029 120.671 186.395 121.279 186.784 122.006Z" fill="#F36312"/>
<path d="M170.465 97.5594C170.014 97.1677 169.534 96.6633 169.061 96.0376C169.524 96.4264 169.981 96.9366 170.465 97.5594Z" fill="#F36312"/>
<path d="M127.294 103.102C127.805 103.423 128.37 103.847 128.889 104.392C128.345 104.077 127.847 103.641 127.294 103.102Z" fill="#F36312"/>
<path d="M20.357 87.4362C19.9654 87.8042 19.4516 88.1906 18.8097 88.5773C19.1993 88.2033 19.7171 87.8289 20.357 87.4362Z" fill="#F36312"/>
<path d="M72.9609 172.02C72.6037 171.646 72.2203 171.156 71.8343 170.542C72.1994 170.914 72.567 171.41 72.9609 172.02Z" fill="#F36312"/>
<path d="M26.6128 166.142C26.3451 166.575 25.9822 167.06 25.4937 167.55C25.7512 167.101 26.1343 166.647 26.6128 166.142Z" fill="#F36312"/>
<path d="M23.2234 170.079C23.064 170.504 22.803 170.983 22.417 171.47C22.5686 171.03 22.8453 170.581 23.2234 170.079Z" fill="#F36312"/>
<path d="M120.512 97.2684C120.842 97.4044 121.231 97.6278 121.618 97.9827C121.268 97.8614 120.92 97.6085 120.512 97.2684Z" fill="#F36312"/>
<path d="M122.998 99.3301C123.326 99.4767 123.711 99.7156 124.091 100.086C123.743 99.9518 123.399 99.6871 122.998 99.3301Z" fill="#F36312"/>
<path d="M105.754 119.956C105.316 119.672 104.837 119.282 104.358 118.767C104.81 119.044 105.262 119.447 105.754 119.956Z" fill="#F36312"/>
<path d="M21.1226 203.636C21.3657 203.869 21.6568 204.196 21.9303 204.657C21.6654 204.438 21.4179 204.084 21.1226 203.636Z" fill="#F36312"/>
<path d="M22.6458 205.916C22.9374 206.118 23.2639 206.423 23.5421 206.849C23.2227 206.653 22.9517 206.336 22.6458 205.916Z" fill="#F36312"/>
<path d="M167.282 93.7154C166.946 93.4426 166.584 93.0596 166.22 92.5577C166.565 92.8277 166.911 93.2164 167.282 93.7154Z" fill="#F36312"/>
<path d="M132.918 108.709C133.199 108.882 133.519 109.155 133.777 109.505C133.462 109.324 133.21 109.067 132.918 108.709Z" fill="#F36312"/>
<path d="M164.872 90.8556C164.515 90.6018 164.131 90.2394 163.748 89.756C164.114 90.0057 164.48 90.3763 164.872 90.8556Z" fill="#F36312"/>
<path d="M107.247 121.666C106.89 121.401 106.506 121.023 106.12 120.525C106.485 120.787 106.852 121.17 107.247 121.666Z" fill="#F36312"/>
<path d="M124.12 100.297C124.52 100.498 124.973 100.8 125.418 101.231C124.998 101.039 124.585 100.718 124.12 100.297Z" fill="#F36312"/>
<path d="M91.6225 77.8993C92.0066 77.9872 92.4549 78.1711 92.9084 78.4882C92.5046 78.4127 92.0956 78.204 91.6225 77.8993Z" fill="#F36312"/>
<path d="M63.5508 214.287C63.7169 214.055 63.9885 213.794 64.3869 213.574C64.228 213.829 63.9422 214.043 63.5508 214.287Z" fill="#F36312"/>
<path d="M231.393 228.894C231.553 228.668 231.824 228.419 232.228 228.183C232.075 228.422 231.789 228.647 231.393 228.894Z" fill="#F36312"/>
<path d="M107.466 87.433C107.754 87.5021 108.103 87.6595 108.444 87.9486C108.133 87.8939 107.83 87.7076 107.466 87.433Z" fill="#F36312"/>
<path d="M171.265 98.5269C171.019 98.3883 170.745 98.1449 170.48 97.7781C170.739 97.9105 170.988 98.1664 171.265 98.5269Z" fill="#F36312"/>
<path d="M176.511 105.587C176.281 105.424 176.028 105.153 175.787 104.76C176.029 104.918 176.258 105.199 176.511 105.587Z" fill="#F36312"/>
<path d="M177.545 107.006C177.321 106.844 177.074 106.574 176.83 106.185C177.063 106.344 177.293 106.621 177.545 107.006Z" fill="#F36312"/>
<path d="M116.634 94.0728C116.844 94.11 117.107 94.2363 117.373 94.4898C117.146 94.4653 116.916 94.3136 116.634 94.0728Z" fill="#F36312"/>
<path d="M70.5171 208.076C70.5993 207.818 70.7806 207.532 71.0687 207.221C70.989 207.479 70.8026 207.764 70.5171 208.076Z" fill="#F36312"/>
<path d="M31.3703 162.354C31.2031 162.578 30.9255 162.827 30.5255 163.071C30.6888 162.837 30.9743 162.608 31.3703 162.354Z" fill="#F36312"/>
<path d="M25.3772 209.242C25.6111 209.361 25.8957 209.567 26.1754 209.899C25.923 209.793 25.6754 209.561 25.3772 209.242Z" fill="#F36312"/>
<path d="M21.9151 204.867C22.1384 205.035 22.3917 205.311 22.6383 205.71C22.4028 205.546 22.1739 205.261 21.9151 204.867Z" fill="#F36312"/>
<path d="M28.6135 212.275C28.8255 212.31 29.088 212.437 29.3558 212.69C29.1288 212.666 28.8964 212.516 28.6135 212.275Z" fill="#F36312"/>
<path d="M90.5119 77.279C90.8001 77.324 91.1548 77.4577 91.5496 77.7084C91.2526 77.6728 90.9155 77.5203 90.5119 77.279Z" fill="#F36312"/>
<path d="M187.487 123.065C187.255 122.899 187 122.624 186.764 122.225C187.011 122.387 187.237 122.671 187.487 123.065Z" fill="#F36312"/>
<path d="M25.2864 167.575C25.2484 167.785 25.1176 168.043 24.8586 168.298C24.8848 168.071 25.0393 167.846 25.2864 167.575Z" fill="#F36312"/>
<path d="M171.877 99.3216C171.685 99.2365 171.468 99.0476 171.259 98.7439C171.462 98.8253 171.657 99.0215 171.877 99.3216Z" fill="#F36312"/>
<path d="M163.051 88.8154C162.854 88.7424 162.63 88.5659 162.402 88.2763C162.607 88.3461 162.815 88.529 163.051 88.8154Z" fill="#F36312"/>
<path d="M232.444 228.18C232.518 227.98 232.691 227.747 232.991 227.534C232.926 227.752 232.735 227.949 232.444 228.18Z" fill="#F36312"/>
<path d="M122.262 98.723C122.457 98.762 122.71 98.8796 122.963 99.1213C122.749 99.0975 122.534 98.9496 122.262 98.723Z" fill="#F36312"/>
<path d="M163.724 89.5319C163.521 89.4688 163.29 89.3054 163.067 89.0225C163.282 89.0792 163.49 89.2554 163.724 89.5319Z" fill="#F36312"/>
<path d="M165.521 91.6174C165.323 91.5414 165.102 91.3605 164.88 91.066C165.086 91.1391 165.292 91.3258 165.521 91.6174Z" fill="#F36312"/>
<path d="M188.108 123.813C187.916 123.737 187.687 123.565 187.474 123.27C187.683 123.337 187.877 123.527 188.108 123.813Z" fill="#F36312"/>
<path d="M101.946 116.401C101.729 116.349 101.482 116.191 101.219 115.916C101.44 115.964 101.677 116.129 101.946 116.401Z" fill="#F36312"/>
<path d="M27.3844 165.436C27.3178 165.639 27.1579 165.879 26.8776 166.082C26.9352 165.854 27.1132 165.664 27.3844 165.436Z" fill="#F36312"/>
<path d="M108.608 123.087C108.408 123.009 108.176 122.825 107.923 122.527C108.127 122.601 108.352 122.791 108.608 123.087Z" fill="#F36312"/>
<path d="M129.312 105.027C129.511 105.075 129.756 105.2 129.955 105.446C129.726 105.412 129.542 105.259 129.312 105.027Z" fill="#F36312"/>
<path d="M180.792 111.867C180.662 111.826 180.515 111.681 180.369 111.422C180.505 111.459 180.639 111.611 180.792 111.867Z" fill="#F36312"/>
<path d="M73.6064 173.133C73.4945 173.074 73.3731 172.912 73.2437 172.64C73.3561 172.697 73.4765 172.863 73.6064 173.133Z" fill="#F36312"/>
<path d="M115.623 93.2928C115.788 93.2867 115.994 93.369 116.177 93.5705C115.991 93.5869 115.828 93.4841 115.623 93.2928Z" fill="#F36312"/>
<path d="M131.418 107.092C131.545 107.108 131.711 107.209 131.877 107.429C131.737 107.424 131.596 107.3 131.418 107.092Z" fill="#F36312"/>
<path d="M108.909 88.4082C109.074 88.3878 109.288 88.4604 109.515 88.6537C109.339 88.6834 109.149 88.5923 108.909 88.4082Z" fill="#F36312"/>
<path d="M162.407 88.0691C162.278 88.0599 162.131 87.9566 161.97 87.7535C162.1 87.7608 162.244 87.8679 162.407 88.0691Z" fill="#F36312"/>
<path d="M119.522 96.4313C119.683 96.4284 119.888 96.5133 120.071 96.7173C119.888 96.7305 119.727 96.6249 119.522 96.4313Z" fill="#F36312"/>
<path d="M232.853 126.618C232.711 126.635 232.545 126.563 232.355 126.398C232.497 126.381 232.663 126.455 232.853 126.618Z" fill="#F36312"/>
<path d="M121.636 98.1822C121.8 98.1817 122.002 98.2684 122.173 98.4721C121.986 98.4825 121.831 98.376 121.636 98.1822Z" fill="#F36312"/>
<path d="M130.369 106.019C130.47 105.97 130.593 106 130.692 106.137C130.546 106.251 130.453 106.203 130.369 106.019Z" fill="#F36312"/>
<path d="M101.208 115.733C101.121 115.796 101 115.758 100.831 115.636C100.914 115.578 101.045 115.605 101.208 115.733Z" fill="#F36312"/>
<path d="M165.855 91.9974C165.774 92.0235 165.674 91.9555 165.548 91.799C165.627 91.7747 165.731 91.839 165.855 91.9974Z" fill="#F36312"/>
<path d="M166.197 92.3521C166.122 92.378 166.024 92.3131 165.893 92.1644C165.965 92.1408 166.07 92.2011 166.197 92.3521Z" fill="#F36312"/>
<path d="M132.578 108.315C132.654 108.294 132.764 108.366 132.902 108.535C132.824 108.558 132.718 108.483 132.578 108.315Z" fill="#F36312"/>
<path d="M73.2299 172.443C73.1466 172.459 73.0523 172.376 72.9466 172.197C73.0299 172.182 73.1244 172.263 73.2299 172.443Z" fill="#F36312"/>
<path d="M132.23 107.962C132.304 107.94 132.414 108.008 132.557 108.171C132.482 108.195 132.374 108.124 132.23 107.962Z" fill="#F36312"/>
<path d="M131.887 107.605C131.96 107.585 132.067 107.655 132.206 107.819C132.132 107.841 132.026 107.769 131.887 107.605Z" fill="#F36312"/>
<path d="M116.254 93.7805C116.338 93.7301 116.463 93.7556 116.599 93.8878C116.49 93.9835 116.384 93.9376 116.254 93.7805Z" fill="#F36312"/>
<path d="M17.7132 89.7253C17.8058 89.7334 17.8497 89.8072 17.8935 89.8809C17.8527 89.9027 17.8118 89.9245 17.6996 89.9483C17.6283 89.9503 17.6644 89.7911 17.7132 89.7253Z" fill="#F36312"/>
<path d="M125.438 101.422C125.526 101.38 125.653 101.424 125.795 101.575C125.699 101.624 125.588 101.566 125.438 101.422Z" fill="#F36312"/>
<path d="M106.109 120.336C106.03 120.362 105.925 120.295 105.79 120.136C105.868 120.111 105.975 120.177 106.109 120.336Z" fill="#F36312"/>
<path d="M107.632 122.078C107.554 122.106 107.416 122.036 107.241 121.856C107.326 121.824 107.449 121.902 107.632 122.078Z" fill="#F36312"/>
<path d="M108.49 88.1322C108.569 88.083 108.696 88.1155 108.859 88.2451C108.776 88.2994 108.657 88.2567 108.49 88.1322Z" fill="#F36312"/>
<path d="M233.562 227.205C233.525 227.115 233.58 226.993 233.743 226.862C233.786 226.96 233.72 227.067 233.562 227.205Z" fill="#F36312"/>
<path d="M233.183 227.543C233.153 227.454 233.216 227.336 233.388 227.211C233.423 227.307 233.35 227.411 233.183 227.543Z" fill="#F36312"/>
<path d="M130.014 105.669C130.116 105.62 130.239 105.65 130.34 105.788C130.194 105.905 130.099 105.857 130.014 105.669Z" fill="#F36312"/>
<path d="M108.996 123.418C108.909 123.459 108.792 123.408 108.647 123.262C108.734 123.22 108.85 123.272 108.996 123.418Z" fill="#F36312"/>
<path d="M128.955 104.631C129.056 104.581 129.177 104.606 129.272 104.738C129.125 104.855 129.036 104.809 128.955 104.631Z" fill="#F36312"/>
<path d="M130.723 106.37C130.824 106.321 130.946 106.351 131.046 106.487C130.9 106.602 130.808 106.554 130.723 106.37Z" fill="#F36312"/>
<path d="M176.82 105.984C176.737 106.006 176.638 105.933 176.519 105.766C176.601 105.744 176.702 105.816 176.82 105.984Z" fill="#F36312"/>
<path d="M120.13 96.9242C120.218 96.8783 120.343 96.9087 120.466 97.0483C120.344 97.1441 120.245 97.0917 120.13 96.9242Z" fill="#F36312"/>
<path d="M119.141 96.0823C119.216 96.0552 119.329 96.1182 119.477 96.2739C119.4 96.3019 119.29 96.2371 119.141 96.0823Z" fill="#F36312"/>
<path d="M131.075 106.717C131.176 106.669 131.299 106.7 131.399 106.837C131.253 106.95 131.16 106.901 131.075 106.717Z" fill="#F36312"/>
<path d="M169.047 95.8368C168.965 95.862 168.864 95.7921 168.743 95.6299C168.824 95.6057 168.926 95.6738 169.047 95.8368Z" fill="#F36312"/>
<path d="M115.749 217.334C122.843 217.191 130.016 217.17 137.189 217.157C156.663 217.121 176.137 217.069 195.61 217.068C201.021 217.067 206.432 217.223 211.992 217.336C211.522 217.466 210.903 217.654 210.283 217.655C179.49 217.669 148.697 217.669 117.904 217.659C117.212 217.659 116.521 217.529 115.749 217.334Z" fill="#F36312"/>
<path d="M183.166 138.242C161.975 138.242 140.96 138.242 119.945 138.242C119.945 138.169 119.945 138.095 119.945 138.022C150.076 138.022 180.206 138.022 210.337 138.022C210.337 138.095 210.337 138.169 210.338 138.242C201.339 138.242 192.341 138.242 183.166 138.242Z" fill="#F36312"/>
<path d="M224.3 207.13C224.216 206.6 224.321 206.038 224.323 205.475C224.368 195.523 224.4 185.571 224.497 175.642C224.664 176.838 224.769 178.01 224.873 179.182C224.876 187.909 224.887 196.636 224.862 205.364C224.861 205.942 224.587 206.519 224.3 207.13Z" fill="#F36312"/>
<path d="M103.345 187.027C103.372 187.442 103.399 187.858 103.394 188.395C103.363 193.559 103.363 198.601 103.363 203.643C103.246 203.644 103.128 203.646 103.011 203.647C102.985 203.202 102.937 202.756 102.936 202.311C102.929 184.69 102.925 167.068 102.929 149.447C102.929 148.934 103.032 148.42 103.207 147.821C103.357 159.937 103.388 172.139 103.347 184.661C103.299 185.663 103.322 186.345 103.345 187.027Z" fill="#F36312"/>
<path d="M224.874 179.019C224.769 178.01 224.664 176.838 224.544 175.508C224.525 167.189 224.521 159.026 224.494 150.705C224.607 151.195 224.858 151.845 224.859 152.495C224.885 161.282 224.875 170.069 224.874 179.019Z" fill="#F36312"/>
<path d="M171.42 195.661C167.459 197.881 163.458 197.515 159.473 195.085C159.743 195.06 160.115 195.071 160.409 195.227C163.659 196.955 167.002 196.97 170.422 195.817C170.694 195.725 170.99 195.702 171.42 195.661Z" fill="#F36312"/>
<path d="M143.267 189.533C141.819 191.154 140.254 192.723 138.594 194.342C140.049 192.755 141.599 191.119 143.267 189.533Z" fill="#F36312"/>
<path d="M217.861 201.635C218.813 202.355 219.75 203.2 220.724 204.155C219.789 203.43 218.818 202.595 217.861 201.635Z" fill="#F36312"/>
<path d="M205.452 189.721C206.602 190.713 207.753 191.831 208.952 193.057C207.817 192.059 206.636 190.954 205.452 189.721Z" fill="#F36312"/>
<path d="M209.646 213.393C208.809 212.702 207.973 211.887 207.089 210.975C207.909 211.676 208.779 212.473 209.646 213.393Z" fill="#F36312"/>
<path d="M159.011 194.609C158.242 194.181 157.477 193.626 156.655 192.968C157.404 193.403 158.209 193.942 159.011 194.609Z" fill="#F36312"/>
<path d="M199.75 203.601C199.069 203.084 198.389 202.442 197.655 201.696C198.318 202.22 199.035 202.848 199.75 203.601Z" fill="#F36312"/>
<path d="M222.505 206.142C223.007 206.385 223.473 206.754 224.055 207.141C223.024 207.942 222.781 207.04 222.505 206.142Z" fill="#F36312"/>
<path d="M154.709 191.127C154.02 190.741 153.369 190.234 152.666 189.634C153.325 190.029 154.036 190.517 154.709 191.127Z" fill="#F36312"/>
<path d="M175.698 192.529C175.18 193.109 174.535 193.676 173.775 194.281C174.298 193.717 174.935 193.117 175.698 192.529Z" fill="#F36312"/>
<path d="M173.57 194.276C173.057 194.743 172.414 195.199 171.651 195.681C172.168 195.226 172.805 194.746 173.57 194.276Z" fill="#F36312"/>
<path d="M220.747 204.372C221.316 204.767 221.885 205.283 222.486 205.909C221.928 205.511 221.337 205.002 220.747 204.372Z" fill="#F36312"/>
<path d="M205.055 208.842C204.497 208.443 203.939 207.92 203.328 207.294C203.869 207.7 204.462 208.209 205.055 208.842Z" fill="#F36312"/>
<path d="M191.126 194.971C190.548 194.597 190.006 194.102 189.414 193.516C189.963 193.9 190.563 194.375 191.126 194.971Z" fill="#F36312"/>
<path d="M129.148 184.055C129.493 183.572 129.964 183.094 130.529 182.57C130.174 183.036 129.724 183.547 129.148 184.055Z" fill="#F36312"/>
<path d="M156.248 192.444C155.77 192.203 155.301 191.838 154.784 191.381C155.242 191.633 155.749 191.977 156.248 192.444Z" fill="#F36312"/>
<path d="M210.409 194.67C210.86 194.942 211.313 195.339 211.805 195.842C211.366 195.564 210.889 195.179 210.409 194.67Z" fill="#F36312"/>
<path d="M208.991 193.276C209.439 193.551 209.891 193.948 210.381 194.452C209.945 194.172 209.47 193.786 208.991 193.276Z" fill="#F36312"/>
<path d="M144.678 188.109C144.419 188.564 144.039 188.981 143.57 189.447C143.84 189.021 144.198 188.546 144.678 188.109Z" fill="#F36312"/>
<path d="M178.52 190.076C178.274 190.447 177.901 190.806 177.428 191.207C177.683 190.854 178.038 190.46 178.52 190.076Z" fill="#F36312"/>
<path d="M206.31 210.01C205.889 209.804 205.509 209.477 205.082 209.049C205.473 209.261 205.913 209.575 206.31 210.01Z" fill="#F36312"/>
<path d="M137.609 195.125C137.398 195.542 137.068 195.912 136.636 196.329C136.852 195.943 137.17 195.51 137.609 195.125Z" fill="#F36312"/>
<path d="M212.812 216.562C212.481 216.392 212.159 216.094 211.791 215.695C212.104 215.875 212.462 216.154 212.812 216.562Z" fill="#F36312"/>
<path d="M200.808 204.652C200.476 204.487 200.147 204.196 199.772 203.804C200.087 203.978 200.449 204.252 200.808 204.652Z" fill="#F36312"/>
<path d="M194.996 198.815C194.65 198.669 194.348 198.405 194 198.055C194.316 198.211 194.678 198.454 194.996 198.815Z" fill="#F36312"/>
<path d="M196.923 200.798C196.594 200.634 196.264 200.344 195.889 199.954C196.203 200.126 196.563 200.399 196.923 200.798Z" fill="#F36312"/>
<path d="M203.29 207.083C202.963 206.922 202.631 206.635 202.251 206.25C202.564 206.42 202.926 206.689 203.29 207.083Z" fill="#F36312"/>
<path d="M147.425 185.458C147.318 185.74 147.148 185.949 146.881 186.196C146.978 185.951 147.17 185.668 147.425 185.458Z" fill="#F36312"/>
<path d="M130.777 201.955C130.668 202.209 130.432 202.459 130.106 202.753C130.228 202.516 130.439 202.234 130.777 201.955Z" fill="#F36312"/>
<path d="M176.444 191.868C176.383 192.091 176.192 192.292 175.902 192.53C175.974 192.327 176.144 192.086 176.444 191.868Z" fill="#F36312"/>
<path d="M195.864 199.748C195.612 199.643 195.36 199.413 195.062 199.097C195.299 199.215 195.582 199.419 195.864 199.748Z" fill="#F36312"/>
<path d="M181.342 187.625C181.227 187.878 180.984 188.122 180.651 188.411C180.779 188.175 180.996 187.896 181.342 187.625Z" fill="#F36312"/>
<path d="M192.4 196.283C192.193 196.236 192.061 196.13 191.882 195.954C192.049 195.997 192.262 196.11 192.4 196.283Z" fill="#F36312"/>
<path d="M188.977 192.88C188.746 192.845 188.564 192.693 188.339 192.464C188.54 192.512 188.784 192.638 188.977 192.88Z" fill="#F36312"/>
<path d="M188.267 192.185C188.037 192.145 187.857 191.989 187.634 191.755C187.833 191.808 188.076 191.938 188.267 192.185Z" fill="#F36312"/>
<path d="M177.189 191.226C177.12 191.448 176.929 191.646 176.637 191.879C176.713 191.676 176.891 191.439 177.189 191.226Z" fill="#F36312"/>
<path d="M187.213 191.132C186.981 191.092 186.798 190.935 186.571 190.699C186.772 190.752 187.016 190.883 187.213 191.132Z" fill="#F36312"/>
<path d="M138.32 194.413C138.287 194.64 138.135 194.823 137.904 195.051C137.951 194.854 138.075 194.612 138.32 194.413Z" fill="#F36312"/>
<path d="M136.431 196.359C136.378 196.57 136.202 196.784 135.929 197.042C135.991 196.845 136.15 196.604 136.431 196.359Z" fill="#F36312"/>
<path d="M212.189 196.408C212.421 196.459 212.659 196.64 212.961 196.917C212.748 196.854 212.472 196.696 212.189 196.408Z" fill="#F36312"/>
<path d="M135.379 197.413C135.324 197.625 135.145 197.839 134.869 198.093C134.932 197.894 135.094 197.655 135.379 197.413Z" fill="#F36312"/>
<path d="M134.671 198.112C134.615 198.322 134.435 198.533 134.16 198.789C134.225 198.593 134.386 198.353 134.671 198.112Z" fill="#F36312"/>
<path d="M207.026 210.715C206.796 210.679 206.607 210.524 206.374 210.29C206.575 210.338 206.821 210.467 207.026 210.715Z" fill="#F36312"/>
<path d="M132.235 200.555C132.172 200.768 131.983 200.983 131.693 201.242C131.765 201.043 131.936 200.8 132.235 200.555Z" fill="#F36312"/>
<path d="M129.869 202.82C129.849 203.009 129.741 203.141 129.548 203.304C129.57 203.144 129.675 202.953 129.869 202.82Z" fill="#F36312"/>
<path d="M180.378 188.464C180.313 188.695 180.131 188.883 179.853 189.104C179.925 188.9 180.093 188.66 180.378 188.464Z" fill="#F36312"/>
<path d="M145.389 187.42C145.348 187.648 145.187 187.833 144.944 188.06C144.998 187.861 145.134 187.618 145.389 187.42Z" fill="#F36312"/>
<path d="M182.112 186.973C182.034 187.173 181.838 187.383 181.537 187.628C181.62 187.436 181.807 187.209 182.112 186.973Z" fill="#F36312"/>
<path d="M125.479 187.556C125.551 187.336 125.762 187.111 126.081 186.841C125.998 187.047 125.808 187.299 125.479 187.556Z" fill="#F36312"/>
<path d="M146.101 186.737C146.058 186.967 145.899 187.144 145.66 187.363C145.715 187.164 145.85 186.924 146.101 186.737Z" fill="#F36312"/>
<path d="M127.365 185.791C127.418 185.574 127.597 185.36 127.875 185.106C127.813 185.308 127.652 185.551 127.365 185.791Z" fill="#F36312"/>
<path d="M130.774 182.495C130.799 182.305 130.911 182.172 131.108 182.008C131.083 182.17 130.972 182.361 130.774 182.495Z" fill="#F36312"/>
<path d="M185.482 189.371C185.252 189.308 185.053 189.125 184.819 188.843C185.026 188.913 185.269 189.082 185.482 189.371Z" fill="#F36312"/>
<path d="M179.283 189.421C179.206 189.623 179.011 189.832 178.712 190.079C178.794 189.887 178.979 189.658 179.283 189.421Z" fill="#F36312"/>
<path d="M186.158 190.077C185.926 190.028 185.739 189.863 185.513 189.612C185.716 189.672 185.96 189.816 186.158 190.077Z" fill="#F36312"/>
<path d="M146.685 186.216C146.688 186.355 146.572 186.495 146.373 186.674C146.383 186.548 146.474 186.382 146.685 186.216Z" fill="#F36312"/>
<path d="M152.589 189.392C152.406 189.405 152.245 189.302 152.041 189.111C152.202 189.106 152.406 189.191 152.589 189.392Z" fill="#F36312"/>
<path d="M210.682 214.486C210.607 214.51 210.498 214.441 210.353 214.28C210.428 214.256 210.538 214.324 210.682 214.486Z" fill="#F36312"/>
<path d="M210.329 214.138C210.253 214.162 210.144 214.092 210.001 213.93C210.076 213.907 210.186 213.976 210.329 214.138Z" fill="#F36312"/>
<path d="M209.976 213.788C209.904 213.808 209.798 213.738 209.656 213.576C209.727 213.556 209.834 213.626 209.976 213.788Z" fill="#F36312"/>
<path d="M189.365 193.221C189.22 193.334 189.129 193.287 189.048 193.11C189.148 193.062 189.269 193.09 189.365 193.221Z" fill="#F36312"/>
<path d="M179.661 189.094C179.696 189.193 179.622 189.297 179.452 189.431C179.421 189.34 179.486 189.22 179.661 189.094Z" fill="#F36312"/>
<path d="M159.411 194.916C159.324 194.965 159.202 194.916 159.038 194.778C159.123 194.731 159.249 194.774 159.411 194.916Z" fill="#F36312"/>
<path d="M211.035 214.852C210.963 214.871 210.856 214.795 210.712 214.626C210.783 214.608 210.892 214.683 211.035 214.852Z" fill="#F36312"/>
<path d="M211.744 215.528C211.673 215.551 211.561 215.483 211.405 215.325C211.475 215.302 211.589 215.369 211.744 215.528Z" fill="#F36312"/>
<path d="M212.925 216.918C212.867 216.955 212.793 216.816 212.78 216.738C212.839 216.734 212.91 216.808 212.925 216.918Z" fill="#F36312"/>
<path d="M156.596 192.797C156.518 192.828 156.403 192.766 156.25 192.612C156.328 192.581 156.443 192.643 156.596 192.797Z" fill="#F36312"/>
<path d="M187.597 191.474C187.452 191.583 187.362 191.536 187.28 191.36C187.38 191.314 187.501 191.342 187.597 191.474Z" fill="#F36312"/>
<path d="M131.174 201.63C131.197 201.703 131.125 201.808 130.962 201.949C130.94 201.877 131.01 201.77 131.174 201.63Z" fill="#F36312"/>
<path d="M135.767 197.082C135.79 197.155 135.72 197.262 135.557 197.404C135.534 197.331 135.604 197.223 135.767 197.082Z" fill="#F36312"/>
<path d="M184.838 188.625C184.747 188.663 184.615 188.589 184.424 188.41C184.509 188.374 184.652 188.444 184.838 188.625Z" fill="#F36312"/>
<path d="M193.898 197.821C193.836 197.867 193.778 197.834 193.768 197.803C193.826 197.772 193.893 197.773 193.898 197.821Z" fill="#F36312"/>
<path d="M191.843 195.669C191.698 195.773 191.606 195.721 191.52 195.538C191.62 195.495 191.743 195.529 191.843 195.669Z" fill="#F36312"/>
<path d="M133.996 198.832C134.019 198.903 133.949 199.012 133.789 199.166C133.767 199.098 133.835 198.985 133.996 198.832Z" fill="#F36312"/>
<path d="M182.407 186.813C182.449 186.866 182.352 186.975 182.282 186.996C182.262 186.931 182.313 186.846 182.407 186.813Z" fill="#F36312"/>
<path d="M133.314 199.531C133.333 199.604 133.255 199.709 133.083 199.851C133.065 199.78 133.141 199.672 133.314 199.531Z" fill="#F36312"/>
<path d="M132.937 199.884C132.963 199.957 132.893 200.069 132.733 200.229C132.709 200.159 132.775 200.042 132.937 199.884Z" fill="#F36312"/>
<path d="M191.499 195.322C191.354 195.43 191.257 195.377 191.167 195.189C191.267 195.144 191.392 195.179 191.499 195.322Z" fill="#F36312"/>
<path d="M126.262 186.816C126.236 186.735 126.309 186.628 126.478 186.488C126.503 186.567 126.432 186.678 126.262 186.816Z" fill="#F36312"/>
<path d="M197.253 201.198C197.183 201.216 197.077 201.144 196.935 200.98C197.005 200.962 197.111 201.035 197.253 201.198Z" fill="#F36312"/>
<path d="M131.527 201.28C131.551 201.355 131.481 201.462 131.319 201.605C131.295 201.531 131.364 201.422 131.527 201.28Z" fill="#F36312"/>
<path d="M217.491 201.316C217.566 201.269 217.688 201.301 217.842 201.429C217.762 201.482 217.65 201.438 217.491 201.316Z" fill="#F36312"/>
<path d="M211.844 196.031C211.925 196.001 212.039 196.06 212.175 196.216C212.09 196.249 211.984 196.185 211.844 196.031Z" fill="#F36312"/>
<path d="M151.995 188.951C151.92 188.98 151.801 188.913 151.63 188.756C151.702 188.728 151.826 188.792 151.995 188.951Z" fill="#F36312"/>
<path d="M126.623 186.473C126.597 186.394 126.668 186.286 126.835 186.143C126.86 186.22 126.79 186.331 126.623 186.473Z" fill="#F36312"/>
<path d="M186.538 190.426C186.396 190.529 186.306 190.479 186.22 190.306C186.319 190.261 186.441 190.291 186.538 190.426Z" fill="#F36312"/>
<path d="M126.98 186.125C126.953 186.046 127.023 185.937 127.188 185.794C127.214 185.871 127.145 185.983 126.98 186.125Z" fill="#F36312"/>
<path d="M128.042 185.076C128.016 184.999 128.086 184.89 128.25 184.747C128.276 184.824 128.207 184.934 128.042 185.076Z" fill="#F36312"/>
<path d="M128.396 184.727C128.37 184.649 128.44 184.541 128.604 184.398C128.63 184.475 128.561 184.585 128.396 184.727Z" fill="#F36312"/>
<path d="M201.138 205.042C201.065 205.064 200.958 204.994 200.815 204.834C200.888 204.812 200.996 204.88 201.138 205.042Z" fill="#F36312"/>
<path d="M201.493 205.403C201.422 205.422 201.314 205.348 201.169 205.182C201.24 205.163 201.349 205.236 201.493 205.403Z" fill="#F36312"/>
<path d="M128.751 184.379C128.728 184.304 128.8 184.198 128.966 184.059C128.988 184.133 128.917 184.24 128.751 184.379Z" fill="#F36312"/>
<path d="M202.2 206.083C202.128 206.108 202.016 206.04 201.859 205.883C201.929 205.86 202.044 205.926 202.2 206.083Z" fill="#F36312"/>
<path d="M103.406 186.905C103.322 186.345 103.299 185.663 103.311 184.812C103.387 185.357 103.427 186.069 103.406 186.905Z" fill="#F36312"/>
</svg>
